<mxfile host="app.diagrams.net" agent="Mozilla/5.0 (Macintosh; Intel Mac OS X 10.15; rv:143.0) Gecko/20100101 Firefox/143.0" version="28.2.5">
  <diagram name="Page-1" id="AdxxEe9DetVni2lw3dZn">
    <mxGraphModel dx="946" dy="549" grid="1" gridSize="10" guides="1" tooltips="1" connect="1" arrows="1" fold="1" page="1" pageScale="1" pageWidth="850" pageHeight="1100" math="1" shadow="0">
      <root>
        <mxCell id="0" />
        <mxCell id="1" parent="0" />
        <mxCell id="WzZo7rwBPiSS0nhT-lU2-1" style="edgeStyle=orthogonalEdgeStyle;rounded=0;orthogonalLoop=1;jettySize=auto;html=1;exitX=0.5;exitY=1;exitDx=0;exitDy=0;entryX=0.5;entryY=0;entryDx=0;entryDy=0;" edge="1" parent="1" source="Yv8FQt4upBwkiq0QZttE-1" target="Yv8FQt4upBwkiq0QZttE-4">
          <mxGeometry relative="1" as="geometry" />
        </mxCell>
        <mxCell id="Yv8FQt4upBwkiq0QZttE-1" value="&lt;div&gt;PSD&lt;/div&gt;&lt;div&gt;von Karman&lt;/div&gt;&lt;div&gt;diff piston&lt;/div&gt;&lt;div&gt;\(\Phi_{atm}\)&lt;/div&gt;" style="rounded=0;whiteSpace=wrap;html=1;" parent="1" vertex="1">
          <mxGeometry x="240" y="10" width="80" height="60" as="geometry" />
        </mxCell>
        <mxCell id="WzZo7rwBPiSS0nhT-lU2-2" style="edgeStyle=orthogonalEdgeStyle;rounded=0;orthogonalLoop=1;jettySize=auto;html=1;exitX=0.5;exitY=1;exitDx=0;exitDy=0;entryX=0.5;entryY=0;entryDx=0;entryDy=0;" edge="1" parent="1" source="Yv8FQt4upBwkiq0QZttE-4" target="Yv8FQt4upBwkiq0QZttE-8">
          <mxGeometry relative="1" as="geometry" />
        </mxCell>
        <mxCell id="Yv8FQt4upBwkiq0QZttE-4" value="&lt;div&gt;Calculate amplitude from \(A=\sqrt{\Phi_{atm}}\)&lt;/div&gt;&lt;div&gt;and random phase from \(\nu = r[0,2\pi]\)&lt;/div&gt;" style="rounded=0;whiteSpace=wrap;html=1;" parent="1" vertex="1">
          <mxGeometry x="220" y="90" width="120" height="90" as="geometry" />
        </mxCell>
        <mxCell id="WzZo7rwBPiSS0nhT-lU2-3" style="edgeStyle=orthogonalEdgeStyle;rounded=0;orthogonalLoop=1;jettySize=auto;html=1;exitX=0.5;exitY=1;exitDx=0;exitDy=0;entryX=0.5;entryY=0;entryDx=0;entryDy=0;" edge="1" parent="1" source="Yv8FQt4upBwkiq0QZttE-8" target="WzZo7rwBPiSS0nhT-lU2-4">
          <mxGeometry relative="1" as="geometry">
            <mxPoint x="280" y="310" as="targetPoint" />
          </mxGeometry>
        </mxCell>
        <mxCell id="Yv8FQt4upBwkiq0QZttE-8" value="&lt;div&gt;Calculate time series, \(\phi_{atm}\), from \(\mathcal{iF}\left(A^{i\nu}\right)\)&lt;/div&gt;" style="rounded=0;whiteSpace=wrap;html=1;" parent="1" vertex="1">
          <mxGeometry x="212.5" y="200" width="135" height="80" as="geometry" />
        </mxCell>
        <mxCell id="WzZo7rwBPiSS0nhT-lU2-4" value="&lt;div&gt;Output:&lt;/div&gt;&lt;div&gt;\(\phi_{atm}\)&lt;/div&gt;" style="rounded=0;whiteSpace=wrap;html=1;" vertex="1" parent="1">
          <mxGeometry x="220" y="330" width="120" height="60" as="geometry" />
        </mxCell>
      </root>
    </mxGraphModel>
  </diagram>
</mxfile>
